<svg width="64" height="64" viewBox="0 0 64 64" fill="none" xmlns="http://www.w3.org/2000/svg">
<path d="M42.0057 56H23.0057V62H42.0057V56Z" fill="black"/>
<path d="M42.0057 56H23.0057V62H42.0057V56Z" fill="url(#paint0_linear_22728_7167)"/>
<path d="M15.1727 2.45168L1.73761 15.8867L5.27315 19.4223L18.7082 5.98722L15.1727 2.45168Z" fill="black"/>
<path d="M15.1727 2.45168L1.73761 15.8867L5.27315 19.4223L18.7082 5.98722L15.1727 2.45168Z" fill="url(#paint1_linear_22728_7167)"/>
<path d="M49.1127 2.3219L45.5771 5.85742L59.0122 19.2925L62.5477 15.757L49.1127 2.3219Z" fill="black"/>
<path d="M49.1127 2.3219L45.5771 5.85742L59.0122 19.2925L62.5477 15.757L49.1127 2.3219Z" fill="url(#paint2_linear_22728_7167)"/>
<path d="M44.5563 9.70648L41.865 9.59241C41.089 9.48286 40.2981 9.55517 39.5548 9.80362C38.8115 10.0521 38.1361 10.4699 37.5819 11.024L32.0774 16.5285L26.3239 10.775C25.8243 10.2869 25.2011 9.94433 24.5213 9.78417C23.8415 9.624 23.1309 9.6523 22.466 9.86603C21.8388 10.0568 21.1715 10.0735 20.5355 9.91444C19.8994 9.75537 19.3186 9.42646 18.855 8.96288L18.0011 8.109L7.39447 18.7156L9.12247 20.4436L9.00839 23.1348C8.89885 23.9108 8.97115 24.7017 9.2196 25.445C9.46805 26.1884 9.88584 26.8638 10.44 27.418L20.0524 37.0304C20.1809 35.7686 20.7855 34.6032 21.7431 33.7715L18.7482 30.7765L19.4553 30.0695L22.5835 33.1977C23.0269 32.9452 23.5067 32.7629 24.0059 32.6571V28.9632L22.2837 27.241L22.9908 26.5339L24.0059 27.5489V22.1991C23.9947 21.3148 24.3086 20.4572 24.8878 19.789C25.4671 19.1208 26.2715 18.6885 27.1484 18.5741C27.4792 18.542 27.8127 18.5571 28.1392 18.6189L26.9097 17.3894L27.6169 16.6823L29.413 18.4785C29.7311 17.8621 30.2232 17.3527 30.8283 17.0135C31.4333 16.6742 32.1246 16.5201 32.8164 16.5702C33.6513 16.6677 34.4258 17.0542 35.0056 17.6628C35.5854 18.2713 35.9341 19.0636 35.9912 19.9022C36.5595 19.632 37.1893 19.5175 37.8164 19.5702C38.7075 19.6768 39.5272 20.1107 40.1165 20.7875C40.7059 21.4644 41.0228 22.336 41.0058 23.2333V26.6571C41.9159 26.8472 42.755 27.287 43.4291 27.9274C44.1031 28.5677 44.5855 29.3832 44.8219 30.2823L47.6105 27.4938L48.3176 28.2009L45.0023 31.5162C45.0024 31.5299 45.0059 31.5427 45.0059 31.5565V34.8766C45.9043 34.7826 46.7436 34.3844 47.3848 33.7481L54.2249 26.908C54.713 26.4084 55.0556 25.7852 55.2157 25.1054C55.3759 24.4256 55.3475 23.715 55.1338 23.0501C54.943 22.4228 54.9263 21.7555 55.0854 21.1195C55.2445 20.4835 55.5734 19.9026 56.037 19.439L56.8909 18.5851L46.2843 7.97852L44.5563 9.70648Z" fill="black"/>
<path d="M44.5563 9.70648L41.865 9.59241C41.089 9.48286 40.2981 9.55517 39.5548 9.80362C38.8115 10.0521 38.1361 10.4699 37.5819 11.024L32.0774 16.5285L26.3239 10.775C25.8243 10.2869 25.2011 9.94433 24.5213 9.78417C23.8415 9.624 23.1309 9.6523 22.466 9.86603C21.8388 10.0568 21.1715 10.0735 20.5355 9.91444C19.8994 9.75537 19.3186 9.42646 18.855 8.96288L18.0011 8.109L7.39447 18.7156L9.12247 20.4436L9.00839 23.1348C8.89885 23.9108 8.97115 24.7017 9.2196 25.445C9.46805 26.1884 9.88584 26.8638 10.44 27.418L20.0524 37.0304C20.1809 35.7686 20.7855 34.6032 21.7431 33.7715L18.7482 30.7765L19.4553 30.0695L22.5835 33.1977C23.0269 32.9452 23.5067 32.7629 24.0059 32.6571V28.9632L22.2837 27.241L22.9908 26.5339L24.0059 27.5489V22.1991C23.9947 21.3148 24.3086 20.4572 24.8878 19.789C25.4671 19.1208 26.2715 18.6885 27.1484 18.5741C27.4792 18.542 27.8127 18.5571 28.1392 18.6189L26.9097 17.3894L27.6169 16.6823L29.413 18.4785C29.7311 17.8621 30.2232 17.3527 30.8283 17.0135C31.4333 16.6742 32.1246 16.5201 32.8164 16.5702C33.6513 16.6677 34.4258 17.0542 35.0056 17.6628C35.5854 18.2713 35.9341 19.0636 35.9912 19.9022C36.5595 19.632 37.1893 19.5175 37.8164 19.5702C38.7075 19.6768 39.5272 20.1107 40.1165 20.7875C40.7059 21.4644 41.0228 22.336 41.0058 23.2333V26.6571C41.9159 26.8472 42.755 27.287 43.4291 27.9274C44.1031 28.5677 44.5855 29.3832 44.8219 30.2823L47.6105 27.4938L48.3176 28.2009L45.0023 31.5162C45.0024 31.5299 45.0059 31.5427 45.0059 31.5565V34.8766C45.9043 34.7826 46.7436 34.3844 47.3848 33.7481L54.2249 26.908C54.713 26.4084 55.0556 25.7852 55.2157 25.1054C55.3759 24.4256 55.3475 23.715 55.1338 23.0501C54.943 22.4228 54.9263 21.7555 55.0854 21.1195C55.2445 20.4835 55.5734 19.9026 56.037 19.439L56.8909 18.5851L46.2843 7.97852L44.5563 9.70648Z" fill="url(#paint3_linear_22728_7167)"/>
<path d="M29.8804 21.6901C29.8044 21.0405 29.476 20.4468 28.966 20.0373C28.4559 19.6278 27.8053 19.4353 27.1546 19.5015C26.5234 19.5886 25.9463 19.9046 25.5329 20.3894C25.1194 20.8742 24.8986 21.4941 24.9124 22.1311V33.4885C23.8515 33.4885 22.8341 33.9099 22.0839 34.66C21.3338 35.4102 20.9124 36.4276 20.9124 37.4885V47.1619C20.9205 47.8603 21.1189 48.5432 21.4864 49.1371C21.8538 49.7311 22.3763 50.2135 22.9976 50.5325C23.576 50.8412 24.0597 51.3012 24.3969 51.8634C24.7342 52.4256 24.9123 53.0689 24.9124 53.7245V54.9321H39.9124V52.4885L41.896 50.6661C42.5222 50.1948 43.0303 49.5844 43.3803 48.8831C43.7302 48.1818 43.9123 47.4088 43.9124 46.6251V31.4885C43.9124 30.4276 43.4909 29.4102 42.7408 28.66C41.9906 27.9099 40.9732 27.4885 39.9124 27.4885V23.1659C39.9293 22.5187 39.7062 21.888 39.286 21.3955C38.8657 20.903 38.2781 20.5834 37.6362 20.4983C37.0063 20.4426 36.3787 20.6285 35.8807 21.0183C35.3826 21.408 35.0513 21.9725 34.9539 22.5974H35.4124V38.0407H34.4124V22.5974H34.9124V20.1659C34.9293 19.5187 34.7062 18.888 34.286 18.3955C33.8657 17.903 33.2781 17.5834 32.6362 17.4983C32.2904 17.4673 31.942 17.5086 31.613 17.6196C31.2841 17.7306 30.9819 17.909 30.7256 18.1432C30.4694 18.3775 30.2647 18.6625 30.1247 18.9802C29.9847 19.2979 29.9124 19.6413 29.9124 19.9885V21.6901H30.4124V37.1335H29.4124V21.6901H29.8804ZM25.3115 42.0407H24.3115V34.0407H25.3115V42.0407ZM39.4124 27.799H40.4124V38.2423H39.4124V27.799Z" fill="black"/>
<path d="M29.8804 21.6901C29.8044 21.0405 29.476 20.4468 28.966 20.0373C28.4559 19.6278 27.8053 19.4353 27.1546 19.5015C26.5234 19.5886 25.9463 19.9046 25.5329 20.3894C25.1194 20.8742 24.8986 21.4941 24.9124 22.1311V33.4885C23.8515 33.4885 22.8341 33.9099 22.0839 34.66C21.3338 35.4102 20.9124 36.4276 20.9124 37.4885V47.1619C20.9205 47.8603 21.1189 48.5432 21.4864 49.1371C21.8538 49.7311 22.3763 50.2135 22.9976 50.5325C23.576 50.8412 24.0597 51.3012 24.3969 51.8634C24.7342 52.4256 24.9123 53.0689 24.9124 53.7245V54.9321H39.9124V52.4885L41.896 50.6661C42.5222 50.1948 43.0303 49.5844 43.3803 48.8831C43.7302 48.1818 43.9123 47.4088 43.9124 46.6251V31.4885C43.9124 30.4276 43.4909 29.4102 42.7408 28.66C41.9906 27.9099 40.9732 27.4885 39.9124 27.4885V23.1659C39.9293 22.5187 39.7062 21.888 39.286 21.3955C38.8657 20.903 38.2781 20.5834 37.6362 20.4983C37.0063 20.4426 36.3787 20.6285 35.8807 21.0183C35.3826 21.408 35.0513 21.9725 34.9539 22.5974H35.4124V38.0407H34.4124V22.5974H34.9124V20.1659C34.9293 19.5187 34.7062 18.888 34.286 18.3955C33.8657 17.903 33.2781 17.5834 32.6362 17.4983C32.2904 17.4673 31.942 17.5086 31.613 17.6196C31.2841 17.7306 30.9819 17.909 30.7256 18.1432C30.4694 18.3775 30.2647 18.6625 30.1247 18.9802C29.9847 19.2979 29.9124 19.6413 29.9124 19.9885V21.6901H30.4124V37.1335H29.4124V21.6901H29.8804ZM25.3115 42.0407H24.3115V34.0407H25.3115V42.0407ZM39.4124 27.799H40.4124V38.2423H39.4124V27.799Z" fill="url(#paint4_linear_22728_7167)"/>
<defs>
<linearGradient id="paint0_linear_22728_7167" x1="32.5057" y1="56" x2="32.5057" y2="62" gradientUnits="userSpaceOnUse">
<stop stop-color="#EF8080"/>
<stop offset="1" stop-color="#F0145A"/>
</linearGradient>
<linearGradient id="paint1_linear_22728_7167" x1="8.45513" y1="9.1692" x2="11.9907" y2="12.7047" gradientUnits="userSpaceOnUse">
<stop stop-color="#EF8080"/>
<stop offset="1" stop-color="#F0145A"/>
</linearGradient>
<linearGradient id="paint2_linear_22728_7167" x1="47.3449" y1="4.08966" x2="60.78" y2="17.5247" gradientUnits="userSpaceOnUse">
<stop stop-color="#EF8080"/>
<stop offset="1" stop-color="#F0145A"/>
</linearGradient>
<linearGradient id="paint3_linear_22728_7167" x1="32.1427" y1="7.97852" x2="32.1427" y2="37.0304" gradientUnits="userSpaceOnUse">
<stop stop-color="#EF8080"/>
<stop offset="1" stop-color="#F0145A"/>
</linearGradient>
<linearGradient id="paint4_linear_22728_7167" x1="32.4124" y1="17.4883" x2="32.4124" y2="54.9321" gradientUnits="userSpaceOnUse">
<stop stop-color="#EF8080"/>
<stop offset="1" stop-color="#F0145A"/>
</linearGradient>
</defs>
</svg>
