<svg aria-hidden="true" style="position: absolute; width: 0; height: 0; overflow: hidden;" version="1.1" xmlns="http://www.w3.org/2000/svg" xmlns:xlink="http://www.w3.org/1999/xlink">
<defs>
<symbol id="icon-Telegram" viewBox="0 0 32 32">
<path fill="#3cacdc" style="fill: var(--color1, #3cacdc)" d="M12 23.922l-2-6 22-16-30.756 11.828c0 0-1.344 0.46-1.238 1.31s1.204 1.238 1.204 1.238l7.15 2.406 3.24 10.308 5.484-4.822-0.014-0.010 7.214 5.532c1.946 0.85 2.654-0.92 2.654-0.92l5.062-26.87-20 22z"></path>
</symbol>
<symbol id="icon-LinkedIn" viewBox="0 0 32 32">
<path fill="#1178b3" style="fill: var(--color2, #1178b3)" d="M4.8 12h4.8v15.2h-4.8v-15.2zM7.2 4.4c1.6 0 2.8 1.2 2.8 2.8-0.2 1.4-1.4 2.8-2.8 2.8-1.6 0-2.8-1.4-2.8-2.8 0-1.6 1.2-2.8 2.8-2.8zM12.4 12h4.6v2c1-1.6 2.8-2.4 4.6-2.4 4.8 0 5.6 3.2 5.6 7.2v8.4h-4.8v-7.4c0-1.8 0-4-2.4-4s-2.8 2-2.8 4v7.6h-4.8v-15.4zM26 0h-20c-4 0-6 2-6 6v20c0 4 2 6 6 6h20c4 0 6-2 6-6v-20c0-4-2-6-6-6z"></path>
</symbol>
<symbol id="icon-Facebook" viewBox="0 0 32 32">
<path fill="#435695" style="fill: var(--color3, #435695)" d="M30.234 0h-28.468c-0.976 0-1.766 0.79-1.766 1.766v28.468c0 0.976 0.79 1.766 1.766 1.766h15.326v-12.392h-4.172v-4.828h4.172v-3.566c0-4.132 2.524-6.38 6.212-6.38 1.766 0 3.284 0.128 3.726 0.188v4.32h-2.56c-2 0-2.39 0.96-2.39 2.36v3.080h4.78l-0.62 4.84h-4.16v12.378h8.154c0.976 0 1.766-0.79 1.766-1.766v-28.468c0-0.976-0.79-1.766-1.766-1.766z"></path>
</symbol>
</defs>
</svg>
