<svg width="24" height="28" viewBox="0 0 24 28" fill="none" xmlns="http://www.w3.org/2000/svg">
<path d="M23.1135 4.3054C22.9445 4.1374 22.7455 4.0529 22.5155 4.0529C22.401 4.0529 22.1595 4.1469 21.7925 4.3324C21.425 4.5184 21.035 4.7254 20.6245 4.9564C20.213 5.1859 19.726 5.3939 19.164 5.5799C18.6025 5.7654 18.0825 5.8594 17.604 5.8594C17.162 5.8594 16.772 5.7754 16.436 5.6069C15.3215 5.0849 14.352 4.6954 13.529 4.4384C12.706 4.1819 11.821 4.0529 10.8735 4.0529C9.2375 4.0529 7.374 4.5849 5.285 5.6469C4.854 5.8619 4.545 6.0284 4.345 6.1504L4.1465 4.6949C4.595 4.3054 4.8845 3.7379 4.8845 3.0974C4.8845 1.9239 3.9335 0.9729 2.76 0.9729C1.5865 0.9729 0.635498 1.9239 0.635498 3.0974C0.635498 3.8629 1.0445 4.5284 1.6515 4.9024L4.5215 25.9474C4.607 26.5739 5.143 27.0284 5.7585 27.0284C5.8145 27.0284 5.8715 27.0249 5.929 27.0174C6.613 26.9234 7.092 26.2939 6.9985 25.6099L5.845 17.1514C7.938 16.1129 9.7485 15.5894 11.2715 15.5894C11.918 15.5894 12.5485 15.6859 13.163 15.8809C13.778 16.0764 14.2895 16.2884 14.6965 16.5179C15.1035 16.7479 15.584 16.9609 16.1365 17.1549C16.69 17.3499 17.2365 17.4474 17.776 17.4474C19.139 17.4474 20.7715 16.9339 22.674 15.9074C22.913 15.7834 23.088 15.6614 23.1985 15.5419C23.309 15.4224 23.3645 15.2524 23.3645 15.0314V4.9029C23.3645 4.6734 23.281 4.4739 23.1135 4.3054Z" fill="#F0145A"/>
</svg>
