<svg width="130" height="60" viewBox="0 0 130 60" fill="none" xmlns="http://www.w3.org/2000/svg">
<path d="M4.95672 0H0V35.7986H4.95672V22.5177C4.95672 20.2709 5.51557 18.4984 6.63326 17.2502C7.75095 16.002 9.2817 15.353 11.1769 15.353C12.8049 15.353 14.1655 15.9521 15.2589 17.1004C16.3523 18.2738 16.9112 19.7466 16.9112 21.5191V35.8236H21.8922V21.5191C21.8922 18.2238 20.9932 15.6276 19.1951 13.6804C17.3971 11.7332 15.0402 10.7596 12.1731 10.7596C11.347 10.7596 10.5209 10.8594 9.71906 11.0841C8.89294 11.3088 8.2369 11.5584 7.70235 11.833C7.16781 12.1076 6.65756 12.4072 6.1959 12.7567C5.73424 13.1062 5.41838 13.3558 5.27259 13.5056C5.1268 13.6554 5.00532 13.7552 4.95672 13.8301V0Z" fill="#F0145A"/>
<path d="M32.9726 0H27.8628V35.7689H32.9726V0Z" fill="white"/>
<path d="M63.1114 25.293L63.3669 22.7381C63.3669 19.3145 62.2428 16.453 59.9433 14.1536C57.6439 11.8541 54.7824 10.73 51.3588 10.73C47.9352 10.73 44.9715 11.9563 42.5188 14.4091C40.0661 16.8618 38.8397 19.7744 38.8397 23.2491C38.8397 26.826 40.1172 29.8919 42.621 32.4468C45.1248 35.0017 48.1396 36.2792 51.6143 36.2792C52.9429 36.2792 54.1692 36.0748 55.3956 35.7171C56.6219 35.3083 57.6439 34.8995 58.3593 34.4907C59.1258 34.0308 59.8922 33.5199 60.5565 32.9578C61.2208 32.3957 61.6807 31.9869 61.8851 31.7314C62.0895 31.4759 62.2428 31.3226 62.345 31.1693L59.0236 27.8479L58.2571 28.8188C57.7461 29.432 56.8774 30.0452 55.6511 30.7095C54.3736 31.3737 53.0451 31.6803 51.6143 31.6803C49.6215 31.6803 47.9352 31.0671 46.5045 29.7897C45.0737 28.5122 44.205 27.0304 43.9495 25.293H63.1114ZM51.3588 15.0733C53.2495 15.0733 54.7824 15.6354 56.0599 16.7085C57.2862 17.8327 58.0527 19.2123 58.3593 20.9497H44.1539C44.6138 19.2123 45.4314 17.8327 46.7089 16.7085C47.9352 15.6354 49.5193 15.0733 51.3588 15.0733Z" fill="white"/>
<path d="M86.9429 34.2863C86.9429 36.5347 86.2786 38.3742 84.899 39.805C83.5704 41.1846 81.8842 41.9 79.7891 41.9C78.8694 41.9 77.9496 41.7467 77.0809 41.4912C76.2122 41.2357 75.548 40.9291 74.9859 40.5714C74.4238 40.2137 73.9128 39.856 73.4018 39.3962C72.9419 38.9363 72.6354 38.6297 72.4821 38.4764C72.3288 38.3231 72.2266 38.1698 72.1244 38.0676L68.803 41.389L69.2118 41.9C69.4673 42.2577 69.9271 42.7176 70.5403 43.2285C71.1535 43.6884 71.8689 44.1994 72.6865 44.7104C73.504 45.1703 74.526 45.5791 75.8035 45.9368C77.0809 46.2944 78.4095 46.4988 79.7891 46.4988C83.2638 46.4988 86.1253 45.3236 88.5269 42.9731C90.8775 40.5714 92.0527 37.7099 92.0527 34.2352V11.241H86.9429V13.7959L86.0742 13.0294C85.5121 12.5184 84.6435 12.0074 83.4171 11.4965C82.1907 10.9855 80.8622 10.73 79.5336 10.73C76.4166 10.73 73.7595 11.9052 71.4601 14.3069C69.1607 16.7085 68.0365 19.57 68.0365 22.9936C68.0365 26.4172 69.1607 29.2787 71.4601 31.6803C73.7595 34.0819 76.4166 35.2572 79.5336 35.2572C80.4023 35.2572 81.2199 35.155 82.0885 34.9506C82.9061 34.6951 83.5704 34.4396 84.1325 34.1841C84.6946 33.9286 85.2055 33.622 85.6654 33.2644C86.1253 32.9067 86.483 32.6512 86.5852 32.549L86.9429 32.1913V34.2863ZM73.1463 22.9936C73.1463 20.8475 73.8106 19.059 75.1903 17.5772C76.5699 16.0953 78.2051 15.3288 80.0446 15.3288C81.8842 15.3288 83.5193 16.0953 84.899 17.5772C86.2275 19.059 86.9429 20.8475 86.9429 22.9936C86.9429 25.1397 86.2275 26.9282 84.899 28.41C83.5193 29.8919 81.8842 30.6583 80.0446 30.6583C78.2051 30.6583 76.5699 29.8919 75.1903 28.41C73.8106 26.9282 73.1463 25.1397 73.1463 22.9936Z" fill="white"/>
<path d="M118.724 35.7682V19.9277C118.724 17.3217 117.753 15.1244 115.863 13.3871C113.972 11.5987 111.519 10.73 108.504 10.73C107.329 10.73 106.154 10.8833 105.03 11.1899C103.906 11.5476 102.986 11.9052 102.321 12.314C101.657 12.7228 100.993 13.1827 100.38 13.7448C99.7666 14.2558 99.4089 14.6135 99.2045 14.8179C99.0512 15.0222 98.8979 15.1755 98.7957 15.3288L102.117 18.6502L102.781 17.7816C103.19 17.2195 103.906 16.7085 104.979 16.1464C106.052 15.5843 107.227 15.3288 108.504 15.3288C109.986 15.3288 111.213 15.7887 112.183 16.6574C113.154 17.5261 113.614 18.6502 113.614 19.9277L104.672 21.4606C102.475 21.8183 100.686 22.687 99.46 24.0667C98.1825 25.4463 97.5182 27.1326 97.5182 29.1254C97.5182 31.016 98.3358 32.6512 99.971 34.0819C101.657 35.5638 103.701 36.2792 106.205 36.2792C107.074 36.2792 107.891 36.177 108.709 35.9215C109.577 35.7171 110.242 35.4616 110.804 35.2061C111.366 34.9506 111.877 34.644 112.337 34.2863C112.797 33.9287 113.103 33.6732 113.308 33.571C113.461 33.4177 113.563 33.2644 113.614 33.2133V35.7682H118.724ZM106.971 31.6803C105.643 31.6803 104.57 31.3737 103.803 30.7606C102.986 30.1474 102.628 29.432 102.628 28.6144C102.628 27.7457 102.884 26.9793 103.446 26.4172C104.008 25.8551 104.774 25.4463 105.694 25.293L113.614 24.0156V24.5265C113.614 26.826 113.052 28.5633 111.877 29.8408C110.702 31.0671 109.066 31.6803 106.971 31.6803Z" fill="white"/>
<path d="M130 0H124.89V35.7689H130V0Z" fill="white"/>
<path d="M0 53.1185H1.59915V58.7253H5.06396V60.0283H0V53.1185Z" fill="white"/>
<path d="M15.5016 58.5477H12.2934L11.6814 60.0283H10.0428L13.1226 53.1185H14.702L17.7917 60.0283H16.1136L15.5016 58.5477ZM14.9982 57.3335L13.9025 54.688L12.8067 57.3335H14.9982Z" fill="white"/>
<path d="M33.5121 53.1185L31.2516 60.0283H29.534L28.0138 55.3494L26.4443 60.0283H24.7366L22.4662 53.1185H24.1245L25.6842 57.9751L27.313 53.1185H28.7937L30.3731 58.0146L31.9821 53.1185H33.5121Z" fill="white"/>
<path d="M50.5232 60.1468C49.819 60.1468 49.1807 59.9954 48.6082 59.6927C48.0422 59.3834 47.5947 58.959 47.2657 58.4193C46.9432 57.8731 46.782 57.2578 46.782 56.5734C46.782 55.889 46.9432 55.277 47.2657 54.7373C47.5947 54.1911 48.0422 53.7667 48.6082 53.464C49.1807 53.1547 49.8223 53 50.5331 53C51.1319 53 51.6716 53.1053 52.152 53.3159C52.6389 53.5265 53.047 53.8292 53.376 54.224L52.3494 55.1717C51.8821 54.6321 51.303 54.3622 50.612 54.3622C50.1843 54.3622 49.8026 54.4577 49.467 54.6485C49.1313 54.8328 48.8681 55.0927 48.6773 55.4283C48.493 55.764 48.4009 56.1456 48.4009 56.5734C48.4009 57.0012 48.493 57.3828 48.6773 57.7185C48.8681 58.0541 49.1313 58.3173 49.467 58.5082C49.8026 58.6924 50.1843 58.7846 50.612 58.7846C51.303 58.7846 51.8821 58.5115 52.3494 57.9653L53.376 58.9129C53.047 59.3143 52.6389 59.6203 52.152 59.8309C51.665 60.0415 51.1221 60.1468 50.5232 60.1468Z" fill="white"/>
<path d="M62.5933 60.1468C61.876 60.1468 61.2278 59.9922 60.6487 59.6829C60.0761 59.3736 59.6253 58.9491 59.2963 58.4095C58.9738 57.8632 58.8126 57.2512 58.8126 56.5734C58.8126 55.8956 58.9738 55.2868 59.2963 54.7472C59.6253 54.201 60.0761 53.7733 60.6487 53.464C61.2278 53.1547 61.876 53 62.5933 53C63.3106 53 63.9555 53.1547 64.5281 53.464C65.1006 53.7733 65.5514 54.201 65.8804 54.7472C66.2095 55.2868 66.374 55.8956 66.374 56.5734C66.374 57.2512 66.2095 57.8632 65.8804 58.4095C65.5514 58.9491 65.1006 59.3736 64.5281 59.6829C63.9555 59.9922 63.3106 60.1468 62.5933 60.1468ZM62.5933 58.7846C63.0013 58.7846 63.3698 58.6924 63.6989 58.5082C64.0279 58.3173 64.2846 58.0541 64.4688 57.7185C64.6597 57.3828 64.7551 57.0012 64.7551 56.5734C64.7551 56.1456 64.6597 55.764 64.4688 55.4283C64.2846 55.0927 64.0279 54.8328 63.6989 54.6485C63.3698 54.4577 63.0013 54.3622 62.5933 54.3622C62.1853 54.3622 61.8168 54.4577 61.4877 54.6485C61.1587 54.8328 60.8987 55.0927 60.7079 55.4283C60.5236 55.764 60.4315 56.1456 60.4315 56.5734C60.4315 57.0012 60.5236 57.3828 60.7079 57.7185C60.8987 58.0541 61.1587 58.3173 61.4877 58.5082C61.8168 58.6924 62.1853 58.7846 62.5933 58.7846Z" fill="white"/>
<path d="M78.7995 60.0283L78.7896 55.8824L76.7561 59.2979H76.0355L74.0119 55.9713V60.0283H72.5115V53.1185H73.8342L76.4205 57.4125L78.9673 53.1185H80.2802L80.2999 60.0283H78.7995Z" fill="white"/>
<path d="M89.8659 53.1185C90.478 53.1185 91.0077 53.2205 91.4552 53.4245C91.9093 53.6285 92.2581 53.918 92.5016 54.2931C92.7451 54.6682 92.8668 55.1125 92.8668 55.6258C92.8668 56.1325 92.7451 56.5767 92.5016 56.9584C92.2581 57.3335 91.9093 57.623 91.4552 57.8271C91.0077 58.0245 90.478 58.1232 89.8659 58.1232H88.4741V60.0283H86.8749V53.1185H89.8659ZM89.7771 56.8202C90.2575 56.8202 90.6227 56.7182 90.8728 56.5142C91.1229 56.3036 91.2479 56.0074 91.2479 55.6258C91.2479 55.2375 91.1229 54.9414 90.8728 54.7373C90.6227 54.5268 90.2575 54.4215 89.7771 54.4215H88.4741V56.8202H89.7771Z" fill="white"/>
<path d="M103.148 58.5477H99.9396L99.3276 60.0283H97.6889L100.769 53.1185H102.348L105.438 60.0283H103.76L103.148 58.5477ZM102.644 57.3335L101.549 54.688L100.453 57.3335H102.644Z" fill="white"/>
<path d="M117.428 53.1185V60.0283H116.115L112.67 55.8331V60.0283H111.09V53.1185H112.413L115.848 57.3137V53.1185H117.428Z" fill="white"/>
<path d="M127.315 57.5803V60.0283H125.716V57.5605L123.041 53.1185H124.739L126.585 56.1884L128.43 53.1185H130L127.315 57.5803Z" fill="white"/>
</svg>
